# xmcd CD database file
# Generated: Tue Jul 1 22:25:43 2003 by KSCD
# 
# Track frame offsets:
#       150
#       16448
#       32528
#       43003
#       58813
#       74433
#       86288
#       100555
#       114650
#       130833
#
# Disc length: 1968 seconds
#
# Revision: 1
# Processed by: cddbd v1.4PL0 Copyright (c) Steve Scherf et al.
# Submitted via: Kscd 1.3.3
#
DISCID=7d07ae0a
DTITLE=George Strait - Ten Strait Hits
DYEAR=1900
DGENRE=
TTITLE0=Famous Last Words Of A Fool
TTITLE1=Baby Blue
TTITLE2=If You Ain't Lovin' (You Ain't Livin')
TTITLE3=Baby's Gotten Good At Goodbye
TTITLE4=What's Going On In Your World
TTITLE5=Ace In The Hole
TTITLE6=Overnight Success
TTITLE7=Love Without End, Amen
TTITLE8=Drinking Champagne
TTITLE9=I've Come To Expect It From You
EXTD=
EXTT0=
EXTT1=
EXTT2=
EXTT3=
EXTT4=
EXTT5=
EXTT6=
EXTT7=
EXTT8=
EXTT9=
PLAYORDER=
